<svg width="16" height="9" viewBox="0 0 16 9" fill="none" xmlns="http://www.w3.org/2000/svg">
<g clip-path="url(#clip0_69_100)">
<path d="M7.33797 4.65088C7.46797 4.47088 7.67797 4.45088 7.85797 4.39088C8.50797 4.15088 9.15797 3.92088 9.79797 3.68088C10.028 3.60088 10.218 3.68088 10.278 3.89088C10.298 3.96088 10.288 4.03088 10.278 4.10088C10.058 4.82088 9.83797 5.54088 9.61797 6.26088C9.51797 6.59088 9.41797 6.91088 9.31797 7.24088C9.31797 7.26088 9.30797 7.28088 9.29797 7.32088C9.35797 7.30088 9.40797 7.29088 9.44797 7.27088C9.94797 7.09088 10.458 6.91088 10.958 6.72088C11.178 6.64088 11.308 6.75088 11.368 6.88088C11.448 7.06088 11.378 7.27088 11.198 7.35088C11.008 7.43088 10.818 7.49088 10.628 7.56088C10.048 7.77088 9.46797 7.98088 8.88797 8.19088C8.75797 8.24088 8.63797 8.23088 8.53797 8.13088C8.42797 8.03088 8.39797 7.91088 8.43797 7.76088C8.73797 6.80088 9.02797 5.85088 9.31797 4.89088C9.34797 4.78088 9.38797 4.66088 9.41797 4.54088C9.28797 4.58088 9.17797 4.63088 9.06797 4.67088C8.63797 4.82088 8.20797 4.98088 7.78797 5.14088C7.62797 5.20088 7.47797 5.21088 7.35797 5.03088C7.35797 5.03088 7.35797 5.03088 7.33797 5.03088C7.33797 5.06088 7.33797 5.08088 7.33797 5.10088C7.33797 5.98088 7.33797 6.85088 7.33797 7.73088C7.33797 8.06088 7.00797 8.14088 6.81797 8.03088C6.72797 7.98088 6.67797 7.91088 6.66797 7.81088C6.66797 7.78088 6.66797 7.75088 6.66797 7.72088C6.66797 6.66088 6.66797 5.60088 6.66797 4.53088C6.66797 4.39088 6.70797 4.28088 6.84797 4.21088C7.03797 4.11088 7.35797 4.21088 7.34797 4.51088C7.34797 4.56088 7.34797 4.61088 7.34797 4.66088L7.33797 4.65088Z" fill="white"/>
<path d="M3.99813 5.10067C3.99813 5.84067 3.99813 6.57067 3.99813 7.31067C3.99813 7.38067 4.01813 7.40067 4.08813 7.40067C4.43813 7.40067 4.79813 7.40067 5.14813 7.40067C5.25813 7.40067 5.35812 7.39067 5.46812 7.36067C5.67812 7.31067 5.77813 7.18067 5.78813 6.96067C5.78813 6.82067 5.78813 6.68067 5.80813 6.54067C5.80813 6.27067 5.83813 6.01067 5.83813 5.74067C5.83813 5.59067 5.82813 5.45067 5.79813 5.30067C5.73813 4.97067 5.56813 4.82067 5.22813 4.80067C5.04813 4.80067 4.87812 4.80067 4.69812 4.80067C4.60812 4.80067 4.52813 4.80067 4.43813 4.80067C4.26813 4.80067 4.13813 4.66067 4.12813 4.49067C4.12813 4.30067 4.22812 4.14067 4.40812 4.14067C4.77812 4.14067 5.14813 4.11067 5.51813 4.17067C6.13813 4.27067 6.43812 4.76067 6.46812 5.27067C6.49812 5.82067 6.48812 6.38067 6.46812 6.93067C6.46812 7.32067 6.30812 7.65067 5.94812 7.86067C5.77812 7.96067 5.57812 8.02067 5.38812 8.05067C4.95812 8.12067 4.52812 8.10067 4.09812 8.08067C3.94812 8.08067 3.80813 8.07067 3.65813 8.06067C3.47813 8.06067 3.33812 7.92067 3.32812 7.73067C3.32812 7.68067 3.32812 7.64067 3.32812 7.59067C3.32812 6.67067 3.32812 5.76067 3.32812 4.84067C3.32812 4.20067 3.32812 3.56067 3.32812 2.92067C3.32812 2.60067 3.62812 2.50067 3.83812 2.60067C3.94812 2.65067 4.00813 2.74067 4.00813 2.87067C4.00813 3.34067 4.00813 3.82067 4.00813 4.29067C4.00813 4.55067 4.00813 4.82067 4.00813 5.08067L3.99813 5.10067Z" fill="white"/>
<path d="M2.44967 7.3908C2.44967 7.3908 2.44967 7.3308 2.44967 7.3008C2.44967 6.8808 2.44967 6.4508 2.44967 6.0308C2.44967 5.8408 2.45967 5.6608 2.45967 5.4708C2.45967 4.6208 2.45967 3.7708 2.44967 2.9208C2.44967 2.6208 2.73967 2.5108 2.94967 2.6008C3.07967 2.6608 3.12967 2.7608 3.12967 2.9008C3.12967 3.4008 3.12967 3.9108 3.12967 4.4108C3.12967 5.5008 3.12967 6.5908 3.12967 7.6908C3.12967 7.8308 3.07967 7.9408 2.95967 8.0108C2.91967 8.0408 2.86967 8.0608 2.81967 8.0608C2.33967 8.0708 1.85967 8.0908 1.37967 8.0808C1.08967 8.0808 0.799673 8.0308 0.539673 7.8908C0.419673 7.8308 0.309673 7.7408 0.219673 7.6508C0.109673 7.5408 0.0496726 7.4108 0.0596726 7.2408C0.0596726 6.5008 0.0596726 5.7608 0.0596726 5.0208C0.0596726 4.9008 0.0896726 4.8108 0.149673 4.7108C0.339673 4.4108 0.609673 4.2408 0.959673 4.1808C1.25967 4.1208 1.55967 4.1408 1.85967 4.1408C1.93967 4.1408 2.01967 4.1408 2.09967 4.1608C2.25967 4.2008 2.34967 4.3508 2.32967 4.5308C2.30967 4.6908 2.18967 4.8108 2.02967 4.8108C1.86967 4.8108 1.69967 4.7908 1.53967 4.7908C1.39967 4.7908 1.25967 4.7908 1.12967 4.8108C0.829673 4.8508 0.689673 5.0108 0.669673 5.3408C0.649673 5.6608 0.659673 5.9908 0.659673 6.3208C0.659673 6.5308 0.659673 6.7508 0.669673 6.9608C0.689673 7.2108 0.819673 7.3508 1.06967 7.3808C1.16967 7.3908 1.27967 7.4008 1.37967 7.4008C1.70967 7.4008 2.04967 7.4008 2.37967 7.4008C2.39967 7.4008 2.41967 7.4008 2.44967 7.4008V7.3908Z" fill="white"/>
<path d="M0.757812 7.05026C0.887812 6.90026 1.02781 6.75026 1.15781 6.60026C1.69781 6.01026 2.26781 5.44026 2.85781 4.90026C3.75781 4.07026 4.71781 3.32026 5.74781 2.66026C6.48781 2.19026 7.27781 1.81026 8.08781 1.47026C8.58781 1.26026 9.09781 1.07026 9.63781 0.950257C10.0978 0.850257 10.5578 0.750257 11.0278 0.670257C11.2378 0.630257 11.4778 0.720257 11.5378 0.970257C11.6078 1.24026 11.4878 1.49026 11.2278 1.58026C11.1478 1.61026 11.0578 1.63026 10.9678 1.64026C10.4678 1.67026 9.97781 1.76026 9.48781 1.87026C7.43781 2.34026 5.57781 3.23026 3.84781 4.45026C3.29781 4.84026 2.75781 5.25026 2.23781 5.69026C1.74781 6.10026 1.27781 6.54026 0.827812 7.00026C0.807812 7.02026 0.787812 7.04026 0.757812 7.06026V7.05026Z" fill="#F18943"/>
<path d="M12.3111 7.4502H12.3011C12.2017 7.4502 12.1211 7.53078 12.1211 7.6302V7.6502C12.1211 7.74961 12.2017 7.8302 12.3011 7.8302H12.3111C12.4105 7.8302 12.4911 7.74961 12.4911 7.6502V7.6302C12.4911 7.53078 12.4105 7.4502 12.3111 7.4502Z" fill="white"/>
<path d="M15.6594 6.55996C15.8251 6.55996 15.9594 6.42565 15.9594 6.25996C15.9594 6.09428 15.8251 5.95996 15.6594 5.95996C15.4937 5.95996 15.3594 6.09428 15.3594 6.25996C15.3594 6.42565 15.4937 6.55996 15.6594 6.55996Z" fill="#F18943"/>
<path d="M15.4789 6.80021C15.6289 6.71021 15.9089 6.74021 15.9489 6.94021C15.9489 6.96021 15.9489 6.99021 15.9489 7.06021C15.9489 7.21021 15.9489 7.36021 15.9489 7.51021C15.9489 7.81021 15.6389 7.98021 15.3789 7.98021C15.3789 7.65021 15.3789 7.32021 15.3789 6.99021C15.3789 6.91021 15.4089 6.85021 15.4789 6.80021Z" fill="white"/>
<path d="M15.1083 6.81961C15.1083 6.81961 15.1083 6.72961 15.1083 6.70961C15.0883 6.45961 15.0083 6.22961 14.8483 6.02961C14.6583 5.78961 14.3583 5.61961 14.0483 5.59961C13.9483 5.59961 13.8483 5.59961 13.7583 5.59961C13.1883 5.67961 12.7483 6.16961 12.7383 6.74961C12.7383 6.80961 12.7383 6.84961 12.7383 6.87961C12.7683 7.16961 12.8783 7.40961 13.0683 7.60961C13.2883 7.83961 13.5983 7.97961 13.9183 7.96961C14.1783 7.96961 14.4183 7.88961 14.6383 7.72961C14.6383 7.72961 14.6483 7.73961 14.6583 7.74961C14.7683 7.87961 14.9183 7.95961 15.0883 7.95961C15.0883 7.57961 15.0883 7.19961 15.0883 6.81961H15.1083ZM13.9183 7.39961C13.7483 7.39961 13.5883 7.32961 13.4783 7.21961C13.3683 7.10961 13.2983 6.94961 13.2983 6.77961C13.2983 6.60961 13.3683 6.44961 13.4783 6.33961C13.5883 6.22961 13.7483 6.15961 13.9183 6.15961C13.9983 6.15961 14.0683 6.16961 14.1283 6.19961C14.3683 6.28961 14.5383 6.51961 14.5383 6.77961C14.5383 6.82961 14.5383 6.86961 14.5183 6.91961C14.4583 7.19961 14.2083 7.39961 13.9083 7.39961H13.9183Z" fill="white"/>
<path d="M15.1086 7.95984C14.9386 7.95984 14.7786 7.87984 14.6786 7.74984C14.6786 7.74984 14.6586 7.72984 14.6486 7.71984C14.5886 7.64984 14.5486 7.54984 14.5486 7.44984V6.91984H14.5386C14.5486 6.85984 14.5586 6.80984 14.5586 6.76984C14.5586 6.49984 14.3886 6.26984 14.1486 6.18984L14.0586 5.58984C14.3686 5.61984 14.6686 5.77984 14.8586 6.01984C15.0186 6.21984 15.1086 6.43984 15.1186 6.69984C15.1186 6.72984 15.1186 6.75984 15.1186 6.80984C15.1186 7.18984 15.1186 7.56984 15.1186 7.94984L15.1086 7.95984Z" fill="white"/>
</g>
<defs>
<clipPath id="clip0_69_100">
<rect width="16" height="9" fill="white"/>
</clipPath>
</defs>
</svg>
