<svg viewBox="0 0 160 48" xmlns="http://www.w3.org/2000/svg" fill="none">
  <!-- Swoosh arc -->
  <path d="M 52 4 Q 80 -2 108 8 Q 118 12 120 18" stroke="#F07B2F" stroke-width="3.5" stroke-linecap="round" fill="none"/>
  <!-- d -->
  <path d="M 12 10 L 12 38 M 12 22 Q 12 14 20 14 Q 28 14 28 22 L 28 30 Q 28 38 20 38 Q 12 38 12 30" stroke="currentColor" stroke-width="4" stroke-linecap="round" stroke-linejoin="round"/>
  <!-- b -->
  <path d="M 34 10 L 34 38 M 34 22 Q 34 14 42 14 Q 50 14 50 22 L 50 30 Q 50 38 42 38 Q 34 38 34 30" stroke="currentColor" stroke-width="4" stroke-linecap="round" stroke-linejoin="round"/>
  <!-- i -->
  <line x1="56" y1="14" x2="56" y2="38" stroke="currentColor" stroke-width="4" stroke-linecap="round"/>
  <circle cx="56" cy="8" r="2.5" fill="currentColor"/>
  <!-- z -->
  <path d="M 64 14 L 78 14 L 64 38 L 78 38" stroke="currentColor" stroke-width="4" stroke-linecap="round" stroke-linejoin="round"/>
  <!-- dot -->
  <circle cx="88" cy="36" r="3" fill="#F07B2F"/>
  <!-- a -->
  <path d="M 96 22 Q 96 14 104 14 Q 112 14 112 22 L 112 38 M 112 28 Q 112 34 104 34 Q 96 34 96 28" stroke="currentColor" stroke-width="3.5" stroke-linecap="round" stroke-linejoin="round" opacity="0.5"/>
  <!-- i -->
  <line x1="118" y1="14" x2="118" y2="38" stroke="currentColor" stroke-width="3.5" stroke-linecap="round" opacity="0.5"/>
  <circle cx="118" cy="8" r="2" fill="currentColor" opacity="0.5"/>
</svg>
